<svg xmlns="http://www.w3.org/2000/svg" data-name="Layer 1" viewBox="0 0 64 64" id="code"><polygon fill="#054f70" points="34.92 47.26 37.74 56.02 26.41 55.86 28.5 47.58 34.92 47.26"></polygon><rect width="47.86" height="32.92" x="8.15" y="8.15" fill="#d7dee2" rx="2.96"></rect><rect width="47.86" height="27.07" x="8.15" y="14" fill="#fff"></rect><rect width="47.86" height="6.11" x="8.15" y="41.07" fill="#146b91" rx="2.96"></rect><path fill="#062b4c" d="M53.06 48.27H10.94A3.94 3.94 0 0 1 7 44.33V41.45a1 1 0 0 1 1-1H56a1 1 0 0 1 1 1v2.88A3.94 3.94 0 0 1 53.06 48.27zM9 42.45v1.88a1.94 1.94 0 0 0 1.94 1.94H53.06A1.94 1.94 0 0 0 55 44.33V42.45zM56 31.25a1 1 0 0 1-1-1V10.94A1.94 1.94 0 0 0 53.06 9H10.94A1.94 1.94 0 0 0 9 10.94V14a1 1 0 0 1-2 0V10.94A4 4 0 0 1 10.94 7H53.06A4 4 0 0 1 57 10.94V30.25A1 1 0 0 1 56 31.25z"></path><path fill="#062b4c" d="M56 42.45H8a1 1 0 0 1-1-1V21.79a1 1 0 0 1 2 0V40.45H55V37.36a1 1 0 0 1 2 0v4.09A1 1 0 0 1 56 42.45zM37.82 57H26.18a1 1 0 0 1-.8-.4 1 1 0 0 1-.16-.87L27.71 47a1 1 0 0 1 1-.73h6.66a1 1 0 0 1 1 .73l.84 2.92a1 1 0 1 1-1.93.55l-.62-2.2H29.42L27.51 55h9l-.36-1.29a1 1 0 0 1 .68-1.24 1 1 0 0 1 1.24.69l.73 2.57a1 1 0 0 1-.16.87A1 1 0 0 1 37.82 57z"></path><path fill="#5aa1ed" d="M12.5 45.5h-1a1 1 0 0 1 0-2h1a1 1 0 0 1 0 2zM28.5 45.5h-13a1 1 0 0 1 0-2h13a1 1 0 0 1 0 2zM52.5 45.5l-.2 0a.64.64 0 0 1-.18-.06l-.18-.09-.15-.12a1 1 0 0 1-.21-.33 1 1 0 0 1-.08-.38 1.5 1.5 0 0 1 0-.2.64.64 0 0 1 .06-.18.76.76 0 0 1 .09-.18l.12-.15.15-.12.18-.09a.64.64 0 0 1 .18-.06 1 1 0 0 1 .58.06 1 1 0 0 1 .33.21 1.58 1.58 0 0 1 .12.15.76.76 0 0 1 .09.18.64.64 0 0 1 .06.18 1.5 1.5 0 0 1 0 .2 1 1 0 0 1-1 1z"></path><path fill="#ef597d" d="M49.5,45.5a1,1,0,0,1-.71-1.71,1,1,0,0,1,.33-.21,1,1,0,0,1,1.09.21,1.05,1.05,0,0,1,.29.71,1,1,0,0,1-.08.38,1,1,0,0,1-.21.33A1.05,1.05,0,0,1,49.5,45.5Z"></path><path fill="#0d4c84" d="M32 12.56a1 1 0 0 1-.38-.08.9.9 0 0 1-.54-.54 1 1 0 0 1-.08-.38 1.05 1.05 0 0 1 .29-.71 1.15 1.15 0 0 1 .33-.21 1 1 0 0 1 .58-.06l.18.06.18.09.15.12.12.15a.76.76 0 0 1 .09.18.64.64 0 0 1 .06.18 1.36 1.36 0 0 1 0 .2.84.84 0 0 1-.08.38 1.15 1.15 0 0 1-.21.33l-.15.12-.18.09-.18.06zM20.71 37.17H12.82a1 1 0 0 1 0-2h7.89a1 1 0 0 1 0 2zM17.71 31.92H12.82a1 1 0 0 1 0-2h4.89a1 1 0 0 1 0 2z"></path><circle cx="35.84" cy="29.4" r="7.43" fill="#168bbf"></circle><rect width="10.98" height="1.75" x="11.02" y="10.69" fill="#fff" rx=".87"></rect><rect width="10.98" height="1.75" x="41.52" y="16.84" fill="#d7dee2" rx=".87"></rect><rect width="5.8" height="1.75" x="46.7" y="19.91" fill="#d7dee2" rx=".87"></rect><path fill="#efa835" d="M27.32 32a1 1 0 0 1-.7-.29L22.71 27.8a1 1 0 0 1 0-1.42l4.17-4.17a1 1 0 1 1 1.41 1.41l-3.46 3.47 3.2 3.2a1 1 0 0 1 0 1.42A1 1 0 0 1 27.32 32zM36.68 32a1 1 0 0 1-.71-.29 1 1 0 0 1 0-1.42l3.2-3.2-3.46-3.47a1 1 0 1 1 1.41-1.41l4.17 4.17a1 1 0 0 1 0 1.42l-3.91 3.91A1 1 0 0 1 36.68 32zM34.23 32H30.05a1 1 0 1 1 0-2h4.18a1 1 0 0 1 0 2z"></path></svg>